# xmcd
#
# Track frame offsets:
#	150
#	14407
#	31755
#	46254
#	61209
#	77945
#	94195
#	111972
#	126696
#	141321
#	159969
#	175591
#
# Disc length: 2532 seconds
#
# Revision: 0
# Processed by: cddbd v1.5.2PL0 Copyright (c) Steve Scherf et al.
# Submitted via: EasyCDDAExtractor 12.0.1.1
#
DISCID=9c09e20c
DTITLE=Pk and Dansefolket - Bam Bam Bam
DYEAR=2007
DGENRE=Danseband
TTITLE0=Svarteper
TTITLE1=En Konvolutt Med Nye Bilde
TTITLE2=No Gjeng Eg Min Egen Veg
TTITLE3=Ei Vakker Attityd
TTITLE4=Eg Hadde en Gong en Båt
TTITLE5=Forglem Meg Ei
TTITLE6=La Det Rulle
TTITLE7=Dele Ei Svele
TTITLE8=Ho Besta
TTITLE9=Kom Heilt Inn Te Meg
TTITLE10=Gryande Sol
TTITLE11=Bam Bam Bam
EXTD=
EXTT0=
EXTT1=
EXTT2=
EXTT3=
EXTT4=
EXTT5=
EXTT6=
EXTT7=
EXTT8=
EXTT9=
EXTT10=
EXTT11=
PLAYORDER=
